{
  "accessors": [
    {
      "bufferView": 2,
      "componentType": 5126,
      "count": 5419,
      "max": [
        0.20603087544441223,
        0.587573230266571,
        0.09227150678634644
      ],
      "min": [
        -0.20603087544441223,
        0.0006383846048265696,
        -0.09227150678634644
      ],
      "type": "VEC3"
    },
    {
      "bufferView": 2,
      "byteOffset": 65028,
      "componentType": 5126,
      "count": 5419,
      "max": [
        1.0,
        1.0,
        1.0
      ],
      "min": [
        -1.0,
        -1.0,
        -1.0
      ],
      "type": "VEC3"
    },
    {
      "bufferView": 3,
      "componentType": 5126,
      "count": 5419,
      "max": [
        1.0,
        1.0,
        1.0,
        1.0
      ],
      "min": [
        -1.0,
        -0.9529228806495667,
        -1.0,
        1.0
      ],
      "type": "VEC4"
    },
    {
      "bufferView": 1,
      "componentType": 5126,
      "count": 5419,
      "max": [
        0.998404860496521,
        0.9984811544418335
      ],
      "min": [
        0.001523435115814209,
        0.0015226007672026753
      ],
      "type": "VEC2"
    },
    {
      "bufferView": 1,
      "byteOffset": 43352,
      "componentType": 5126,
      "count": 5419,
      "max": [
        0.998404860496521,
        0.9984811544418335
      ],
      "min": [
        0.001523435115814209,
        0.0015226007672026753
      ],
      "type": "VEC2"
    },
    {
      "bufferView": 1,
      "byteOffset": 86704,
      "componentType": 5126,
      "count": 5419,
      "max": [
        0.998404860496521,
        0.9984811544418335
      ],
      "min": [
        0.001523435115814209,
        0.0015226007672026753
      ],
      "type": "VEC2"
    },
    {
      "bufferView": 1,
      "byteOffset": 130056,
      "componentType": 5126,
      "count": 5419,
      "max": [
        0.998404860496521,
        0.9984811544418335
      ],
      "min": [
        0.001523435115814209,
        0.0015226007672026753
      ],
      "type": "VEC2"
    },
    {
      "bufferView": 1,
      "byteOffset": 173408,
      "componentType": 5126,
      "count": 5419,
      "max": [
        0.998404860496521,
        0.9984811544418335
      ],
      "min": [
        0.001523435115814209,
        0.0015226007672026753
      ],
      "type": "VEC2"
    },
    {
      "bufferView": 1,
      "byteOffset": 216760,
      "componentType": 5126,
      "count": 5419,
      "max": [
        0.998404860496521,
        0.9984811544418335
      ],
      "min": [
        0.001523435115814209,
        0.0015226007672026753
      ],
      "type": "VEC2"
    },
    {
      "bufferView": 0,
      "componentType": 5125,
      "count": 25248,
      "type": "SCALAR"
    }
  ],
  "asset": {
    "extras": {
      "author": "Igrium (https://sketchfab.com/Sam54123)",
      "license": "CC-BY-4.0 (http://creativecommons.org/licenses/by/4.0/)",
      "source": "https://sketchfab.com/3d-models/portal-radio-remastered-8e6fc07851c5413ebfca5193bbf0f000",
      "title": "Portal Radio Remastered"
    },
    "generator": "Sketchfab-14.49.0",
    "version": "2.0"
  },
  "bufferViews": [
    {
      "buffer": 0,
      "byteLength": 100992,
      "name": "floatBufferViews",
      "target": 34963
    },
    {
      "buffer": 0,
      "byteLength": 260112,
      "byteOffset": 100992,
      "byteStride": 8,
      "name": "floatBufferViews",
      "target": 34962
    },
    {
      "buffer": 0,
      "byteLength": 130056,
      "byteOffset": 361104,
      "byteStride": 12,
      "name": "floatBufferViews",
      "target": 34962
    },
    {
      "buffer": 0,
      "byteLength": 86704,
      "byteOffset": 491160,
      "byteStride": 16,
      "name": "floatBufferViews",
      "target": 34962
    }
  ],
  "buffers": [
    {
      "byteLength": 577864,
      "uri": "scene.bin"
    }
  ],
  "images": [
    {
      "uri": "textures/radio_baseColor.png"
    },
    {
      "uri": "textures/radio_metallicRoughness.png"
    },
    {
      "uri": "textures/radio_emissive.png"
    },
    {
      "uri": "textures/radio_normal.png"
    }
  ],
  "materials": [
    {
      "doubleSided": true,
      "emissiveFactor": [
        1.0,
        1.0,
        1.0
      ],
      "emissiveTexture": {
        "index": 2
      },
      "name": "radio",
      "normalTexture": {
        "index": 3
      },
      "occlusionTexture": {
        "index": 1
      },
      "pbrMetallicRoughness": {
        "baseColorTexture": {
          "index": 0
        },
        "metallicRoughnessTexture": {
          "index": 1
        }
      }
    }
  ],
  "meshes": [
    {
      "name": "Object_0",
      "primitives": [
        {
          "attributes": {
            "NORMAL": 1,
            "POSITION": 0,
            "TANGENT": 2,
            "TEXCOORD_0": 3,
            "TEXCOORD_1": 4,
            "TEXCOORD_2": 5,
            "TEXCOORD_3": 6,
            "TEXCOORD_4": 7,
            "TEXCOORD_5": 8
          },
          "indices": 9,
          "material": 0,
          "mode": 4
        }
      ]
    }
  ],
  "nodes": [
    {
      "children": [
        1
      ],
      "matrix": [
        1.0,
        0.0,
        0.0,
        0.0,
        0.0,
        2.220446049250313e-16,
        -1.0,
        0.0,
        0.0,
        1.0,
        2.220446049250313e-16,
        0.0,
        0.0,
        0.0,
        0.0,
        1.0
      ],
      "name": "Sketchfab_model"
    },
    {
      "children": [
        2
      ],
      "name": "root"
    },
    {
      "children": [
        3
      ],
      "matrix": [
        1.0,
        0.0,
        0.0,
        0.0,
        0.0,
        2.220446049250313e-16,
        1.0,
        0.0,
        0.0,
        -1.0,
        2.220446049250313e-16,
        0.0,
        0.0,
        0.0,
        0.0,
        1.0
      ],
      "name": "GLTF_SceneRootNode"
    },
    {
      "children": [
        4
      ],
      "name": "radio_0"
    },
    {
      "mesh": 0,
      "name": "Object_4"
    }
  ],
  "samplers": [
    {
      "magFilter": 9729,
      "minFilter": 9987,
      "wrapS": 10497,
      "wrapT": 10497
    }
  ],
  "scene": 0,
  "scenes": [
    {
      "name": "Sketchfab_Scene",
      "nodes": [
        0
      ]
    }
  ],
  "textures": [
    {
      "sampler": 0,
      "source": 0
    },
    {
      "sampler": 0,
      "source": 1
    },
    {
      "sampler": 0,
      "source": 2
    },
    {
      "sampler": 0,
      "source": 3
    }
  ]
}
